<svg width="27" height="27" viewBox="0 0 27 27" fill="none" xmlns="http://www.w3.org/2000/svg">
<path opacity="0.4" d="M13.4999 26.4166C20.6338 26.4166 26.4166 20.6338 26.4166 13.4999C26.4166 6.36604 20.6338 0.583252 13.4999 0.583252C6.36604 0.583252 0.583252 6.36604 0.583252 13.4999C0.583252 20.6338 6.36604 26.4166 13.4999 26.4166Z" fill="#8BD9FF"/>
<path d="M13.5001 14.7916C12.7767 14.7916 12.2084 14.2103 12.2084 13.4999C12.2084 12.7895 12.7897 12.2083 13.5001 12.2083C14.2105 12.2083 14.7917 12.7895 14.7917 13.4999C14.7917 14.2103 14.2234 14.7916 13.5001 14.7916ZM18.6667 14.7916C17.9434 14.7916 17.3751 14.2103 17.3751 13.4999C17.3751 12.7895 17.9563 12.2083 18.6667 12.2083C19.3772 12.2083 19.9584 12.7895 19.9584 13.4999C19.9584 14.2103 19.3901 14.7916 18.6667 14.7916ZM8.33341 14.7916C7.61008 14.7916 7.04175 14.2103 7.04175 13.4999C7.04175 12.7895 7.623 12.2083 8.33341 12.2083C9.04383 12.2083 9.62508 12.7895 9.62508 13.4999C9.62508 14.2103 9.05675 14.7916 8.33341 14.7916Z" fill="#8BD9FF"/>
</svg>
