 <svg width="30" height="30" viewBox="0 0 30 30" fill="none" xmlns="http://www.w3.org/2000/svg " className="fill-[#8BD9FF] hover:fill-[#0097E2] ease-in duration-200">
         <path opacity="0.4" d="M15.03 0C6.315 0 0 7.11 0 15C0 17.52 0.735 20.115 2.025 22.485C2.265 22.875 2.295 23.37 2.13 23.835L1.125 27.195C0.9 28.005 1.59 28.605 2.355 28.365L5.385 27.465C6.21 27.195 6.855 27.54 7.6215 28.005C9.8115 29.295 12.54 29.955 15 29.955C22.44 29.955 30 24.21 30 14.955C30 6.975 23.55 0 15.03 0Z" />
        <path d="M8.05513 13.0952C9.12013 13.0952 9.97513 13.9502 9.97513 15.0152C9.97513 16.0652 9.12013 16.9202 8.05513 16.9352C7.00513 16.9352 6.13513 16.0652 6.13513 15.0152C6.13513 13.9502 6.99013 13.0952 8.05513 13.0952ZM14.9707 13.0952C16.0357 13.0952 16.8907 13.9502 16.8907 15.0152C16.8907 16.0652 16.0357 16.9352 14.9707 16.9352C13.9057 16.9202 13.0507 16.0652 13.0507 15.0002C13.0507 13.9502 13.9207 13.0802 14.9707 13.0952ZM21.8854 13.0952C22.9504 13.0952 23.8054 13.9502 23.8054 15.0152C23.8054 16.0652 22.9504 16.9352 21.8854 16.9352C20.8204 16.9352 19.9654 16.0652 19.9654 15.0152C19.9654 13.9502 20.8204 13.0952 21.8854 13.0952Z" />
</svg>