<svg width="29" height="30" viewBox="0 0 29 30" fill="none" xmlns="http://www.w3.org/2000/svg">
<path d="M9.9656 28.1732V23.5729C9.96558 22.4071 10.9135 21.4601 12.0877 21.4527H16.3989C17.5783 21.4527 18.5344 22.4019 18.5344 23.5729V28.1598C18.5344 29.1709 19.356 29.9926 20.3744 30H23.3157C24.6895 30.0035 26.0081 29.4642 26.9808 28.5011C27.9534 27.5379 28.5 26.2301 28.5 24.8663V11.7988C28.5 10.6971 28.0081 9.65207 27.1569 8.94525L17.1645 1.0114C15.4178 -0.376316 12.9231 -0.331488 11.2281 1.11808L1.45052 8.94525C0.559111 9.63123 0.0263284 10.6793 0 11.7988V24.853C0 27.6956 2.32107 30 5.18426 30H8.05844C8.54876 30.0035 9.02023 29.8126 9.36821 29.4696C9.71619 29.1267 9.91189 28.66 9.91187 28.1732H9.9656Z" fill="#8BD9FF"/>
</svg>
