<svg width="600" height="842" viewBox="0 0 600 842" fill="none" xmlns="http://www.w3.org/2000/svg">
<mask id="path-1-inside-1_847_1438" fill="white">
<path d="M580 0C591.046 0 600 8.95431 600 20V420.967L4.00544e-05 420.967V20C4.00544e-05 8.95428 8.95433 0 20 0L580 0Z"/>
</mask>
<path d="M580 0C591.046 0 600 8.95431 600 20V420.967L4.00544e-05 420.967V20C4.00544e-05 8.95428 8.95433 0 20 0L580 0Z" fill="#0D1743"/>
<path d="M580 -6C594.359 -6 606 5.6406 606 20V420.967H594V20C594 12.268 587.732 6 580 6V-6ZM-5.99996 420.967V20C-5.99996 5.6406 5.64067 -6 20 -6V6C12.268 6 6.00004 12.268 6.00004 20V420.967H-5.99996ZM-5.99996 20C-5.99996 5.6406 5.64067 -6 20 -6L580 -6C594.359 -6 606 5.6406 606 20H594C594 12.268 587.732 6 580 6L20 6C12.268 6 6.00004 12.268 6.00004 20H-5.99996ZM600 420.967L4.00544e-05 420.967L600 420.967Z" fill="white" mask="url(#path-1-inside-1_847_1438)"/>
<mask id="path-3-inside-2_847_1438" fill="white">
<path d="M600 420.967V821.935C600 832.98 591.046 841.935 580 841.935H20C8.95439 841.935 4.00544e-05 832.98 4.00544e-05 821.935V420.967L600 420.967Z"/>
</mask>
<path d="M600 420.967V821.935C600 832.98 591.046 841.935 580 841.935H20C8.95439 841.935 4.00544e-05 832.98 4.00544e-05 821.935V420.967L600 420.967Z" fill="#2C3B7C"/>
<path d="M606 420.967V821.935C606 836.294 594.359 847.935 580 847.935V835.935C587.732 835.935 594 829.667 594 821.935V420.967H606ZM20 847.935C5.64067 847.935 -5.99996 836.294 -5.99996 821.935V420.967H6.00004V821.935C6.00004 829.667 12.268 835.935 20 835.935V847.935ZM4.00544e-05 420.967L600 420.967L4.00544e-05 420.967ZM606 821.935C606 836.294 594.359 847.935 580 847.935H20C5.64067 847.935 -5.99996 836.294 -5.99996 821.935H6.00004C6.00004 829.667 12.268 835.935 20 835.935H580C587.732 835.935 594 829.667 594 821.935H606Z" fill="white" mask="url(#path-3-inside-2_847_1438)"/>
<line x1="590.543" y1="421.403" x2="8.96959" y2="421.403" stroke="white" stroke-width="6" stroke-linecap="round" stroke-dasharray="20 20"/>
<line x1="299.528" y1="3" x2="299.528" y2="838.935" stroke="white" stroke-width="6" stroke-linecap="round"/>
</svg>
