<svg width="94" height="24" viewBox="0 0 94 24" fill="none" xmlns="http://www.w3.org/2000/svg">
<path d="M48.3 8.11205L49.62 10.7521C49.8 11.1121 50.28 11.472 50.68 11.532L53.07 11.9321C54.6 12.192 54.96 13.2921 53.86 14.3921L52 16.2521C51.69 16.5621 51.51 17.1721 51.61 17.6121L52.14 19.9221C52.56 21.7421 51.59 22.4521 49.98 21.5021L47.74 20.1721C47.33 19.9321 46.67 19.9321 46.26 20.1721L44.02 21.5021C42.41 22.4521 41.44 21.7421 41.86 19.9221L42.39 17.6121C42.49 17.182 42.31 16.5721 42 16.2521L40.14 14.3921C39.04 13.2921 39.4 12.1821 40.93 11.9321L43.32 11.532C43.72 11.462 44.2 11.1121 44.38 10.7521L45.7 8.11205C46.41 6.68205 47.59 6.68205 48.3 8.11205Z" fill="#8BD9FF"/>
<path opacity="0.4" d="M41 9.75C40.59 9.75 40.25 9.41 40.25 9V2C40.25 1.59 40.59 1.25 41 1.25C41.41 1.25 41.75 1.59 41.75 2V9C41.75 9.41 41.41 9.75 41 9.75ZM53 9.75C52.59 9.75 52.25 9.41 52.25 9V2C52.25 1.59 52.59 1.25 53 1.25C53.41 1.25 53.75 1.59 53.75 2V9C53.75 9.41 53.41 9.75 53 9.75ZM47 4.75C46.59 4.75 46.25 4.41 46.25 4V2C46.25 1.59 46.59 1.25 47 1.25C47.41 1.25 47.75 1.59 47.75 2V4C47.75 4.41 47.41 4.75 47 4.75Z" fill="#8BD9FF"/>
</svg>
