<svg width="24" height="24" viewBox="0 0 24 24" fill="none" xmlns="http://www.w3.org/2000/svg">
<path d="M13.3 8.11205L14.62 10.7521C14.8 11.1121 15.28 11.472 15.68 11.532L18.07 11.9321C19.6 12.192 19.96 13.2921 18.86 14.3921L17 16.2521C16.69 16.5621 16.51 17.1721 16.61 17.6121L17.14 19.9221C17.56 21.7421 16.59 22.4521 14.98 21.5021L12.74 20.1721C12.33 19.9321 11.67 19.9321 11.26 20.1721L9.01997 21.5021C7.40997 22.4521 6.43997 21.7421 6.85997 19.9221L7.38997 17.6121C7.48997 17.182 7.30997 16.5721 6.99997 16.2521L5.13997 14.3921C4.03997 13.2921 4.39997 12.1821 5.92997 11.9321L8.31997 11.532C8.71997 11.462 9.19997 11.1121 9.37997 10.7521L10.7 8.11205C11.41 6.68205 12.59 6.68205 13.3 8.11205Z" fill="#01FD91"/>
<path opacity="0.4" d="M6 9.75C5.59 9.75 5.25 9.41 5.25 9V2C5.25 1.59 5.59 1.25 6 1.25C6.41 1.25 6.75 1.59 6.75 2V9C6.75 9.41 6.41 9.75 6 9.75ZM18 9.75C17.59 9.75 17.25 9.41 17.25 9V2C17.25 1.59 17.59 1.25 18 1.25C18.41 1.25 18.75 1.59 18.75 2V9C18.75 9.41 18.41 9.75 18 9.75ZM12 4.75C11.59 4.75 11.25 4.41 11.25 4V2C11.25 1.59 11.59 1.25 12 1.25C12.41 1.25 12.75 1.59 12.75 2V4C12.75 4.41 12.41 4.75 12 4.75Z" fill="#01FD91"/>
</svg>
