<svg width="14" height="14" viewBox="0 0 14 14" fill="none" xmlns="http://www.w3.org/2000/svg">
<path d="M12.2325 8.35911C12.0155 8.11397 11.7487 7.91797 11.45 7.78417C11.1512 7.65038 10.8273 7.58189 10.5 7.58327C10.1934 7.58289 9.88985 7.64298 9.60658 7.76011C9.32331 7.87723 9.06594 8.04909 8.84919 8.26583C8.63244 8.48258 8.46059 8.73996 8.34346 9.02322C8.22634 9.30649 8.16624 9.61008 8.16663 9.91661C8.16663 10.3541 8.28913 10.7683 8.50496 11.1183C8.62163 11.3166 8.77329 11.4974 8.94829 11.6491C9.35663 12.0224 9.89913 12.2499 10.5 12.2499C11.3516 12.2499 12.0925 11.7949 12.495 11.1183C12.6175 10.9199 12.7108 10.6924 12.7633 10.4591C12.81 10.2841 12.8333 10.1033 12.8333 9.91661C12.8333 9.32161 12.6058 8.77327 12.2325 8.35911ZM11.375 10.3424H9.63079C9.39163 10.3424 9.19329 10.1441 9.19329 9.90494C9.19329 9.66577 9.39163 9.46744 9.63079 9.46744H11.375C11.6141 9.46744 11.8125 9.66577 11.8125 9.90494C11.8125 10.1441 11.6141 10.3424 11.375 10.3424Z" fill="#FF0D3E" fill-opacity="0.66"/>
<path opacity="0.4" d="M12.3025 12.5416C12.3025 12.705 12.1742 12.8333 12.0108 12.8333H1.98918C1.82584 12.8333 1.69751 12.705 1.69751 12.5416C1.69751 10.1266 4.07751 8.16663 7.00001 8.16663C7.60084 8.16663 8.18418 8.24829 8.72084 8.40579C8.37668 8.81413 8.16668 9.34496 8.16668 9.91663C8.16668 10.3541 8.28918 10.7683 8.50501 11.1183C8.62168 11.3166 8.77334 11.4975 8.94834 11.6491C9.35668 12.0225 9.89918 12.25 10.5 12.25C11.1533 12.25 11.7425 11.9816 12.1625 11.55C12.2558 11.865 12.3025 12.1975 12.3025 12.5416Z" fill="#FF0D3E" fill-opacity="0.66"/>
<path d="M7.00004 6.99996C7.77359 6.99996 8.51545 6.69267 9.06244 6.14569C9.60942 5.59871 9.91671 4.85684 9.91671 4.08329C9.91671 3.30974 9.60942 2.56788 9.06244 2.0209C8.51545 1.47392 7.77359 1.16663 7.00004 1.16663C6.22649 1.16663 5.48463 1.47392 4.93765 2.0209C4.39066 2.56788 4.08337 3.30974 4.08337 4.08329C4.08337 4.85684 4.39066 5.59871 4.93765 6.14569C5.48463 6.69267 6.22649 6.99996 7.00004 6.99996Z" fill="#FF0D3E" fill-opacity="0.66"/>
</svg>
