<svg width="20" height="20" viewBox="0 0 20 20" fill="none" xmlns="http://www.w3.org/2000/svg">
<path opacity="0.4" d="M19.9998 9.99992C19.9998 15.5229 15.5229 19.9998 9.99992 19.9998C4.47697 19.9998 0 15.5229 0 9.99992C0 4.47797 4.47697 0 9.99992 0C15.5229 0 19.9998 4.47797 19.9998 9.99992Z" fill="#01FD91"/>
<path d="M13.8598 6.70505L12.2398 11.825C12.1798 12.035 12.0098 12.205 11.7998 12.266L6.69983 13.865C6.35984 13.976 6.02984 13.645 6.13984 13.305L7.73983 8.17504C7.79983 7.96504 7.96982 7.80504 8.17982 7.73504L13.2998 6.13505C13.6498 6.02506 13.9698 6.35505 13.8598 6.70505Z" fill="#01FD91"/>
</svg>
