<svg
    width="20"
    height="20"
    viewBox="0 0 20 20"
    fill="none"
    xmlns="http://www.w3.org/2000/svg"
>
    <rect width="20" height="20" fill="#484848" />
    <g clip-path="url(#clip0_0_1)">
    <rect
        width="1440"
        height="1024"
        transform="translate(-137 -133)"
        fill="white"
    />
    <rect
        x="-137"
        y="-133"
        width="1440"
        height="1024"
        fill="url(#paint0_linear_0_1)"
    />
    <mask id="path-2-inside-1_0_1" fill="white">
        <path
        fill-rule="evenodd"
        clip-rule="evenodd"
        d="M-97 -133H-137V-93V891H-97C-85.9543 891 -77 882.046 -77 871V-73H1283C1294.05 -73 1303 -81.9543 1303 -93V-133H-97Z"
        />
    </mask>
    <path
        fill-rule="evenodd"
        clip-rule="evenodd"
        d="M-97 -133H-137V-93V891H-97C-85.9543 891 -77 882.046 -77 871V-73H1283C1294.05 -73 1303 -81.9543 1303 -93V-133H-97Z"
        fill="url(#paint1_linear_0_1)"
    />
    <path
        d="M-137 -133V-134H-138V-133H-137ZM-137 891H-138V892H-137V891ZM-77 -73V-74H-78V-73H-77ZM1303 -133H1304V-134H1303V-133ZM-137 -132H-97V-134H-137V-132ZM-136 -93V-133H-138V-93H-136ZM-136 891V-93H-138V891H-136ZM-97 890H-137V892H-97V890ZM-78 871C-78 881.493 -86.5066 890 -97 890V892C-85.402 892 -76 882.598 -76 871H-78ZM-78 -73V871H-76V-73H-78ZM1283 -74H-77V-72H1283V-74ZM1302 -93C1302 -82.5066 1293.49 -74 1283 -74V-72C1294.6 -72 1304 -81.402 1304 -93H1302ZM1302 -133V-93H1304V-133H1302ZM-97 -132H1303V-134H-97V-132Z"
        fill="#0097E2"
        mask="url(#path-2-inside-1_0_1)"
    />
    <rect
        x="-16.5"
        y="-17.5"
        width="1258"
        height="174"
        rx="19.5"
        stroke="white"
    />
    <path
        opacity="0.4"
        d="M19.9998 9.99992C19.9998 15.5229 15.5229 19.9998 9.99992 19.9998C4.47697 19.9998 0 15.5229 0 9.99992C0 4.47797 4.47697 0 9.99992 0C15.5229 0 19.9998 4.47797 19.9998 9.99992Z"
        fill="#01FD91"
    />
    <path
        d="M13.8598 6.70505L12.2398 11.825C12.1798 12.035 12.0098 12.205 11.7998 12.266L6.69983 13.865C6.35984 13.976 6.02984 13.645 6.13984 13.305L7.73983 8.17504C7.79983 7.96504 7.96982 7.80504 8.17982 7.73504L13.2998 6.13505C13.6498 6.02506 13.9698 6.35505 13.8598 6.70505Z"
        fill="#01FD91"
    />
    </g>
    <defs>
    <linearGradient
        id="paint0_linear_0_1"
        x1="-205"
        y1="-191"
        x2="1217.5"
        y2="1077.5"
        gradientUnits="userSpaceOnUse"
    >
        <stop stop-color="#2C3B7C" />
        <stop offset="0.836152" stop-color="#0D1743" />
    </linearGradient>
    <linearGradient
        id="paint1_linear_0_1"
        x1="-336.839"
        y1="-299.5"
        x2="980.82"
        y2="629.425"
        gradientUnits="userSpaceOnUse"
    >
        <stop offset="0.0957145" stop-color="#2C3B7C" />
        <stop offset="0.435385" stop-color="#0F1947" />
        <stop offset="0.950792" stop-color="#2C3B7C" />
    </linearGradient>
    <clipPath id="clip0_0_1">
        <rect
        width="1440"
        height="1024"
        fill="white"
        transform="translate(-137 -133)"
        />
    </clipPath>
    </defs>
</svg>