<svg width="15" height="15" viewBox="0 0 15 15" fill="none" xmlns="http://www.w3.org/2000/svg">
<path opacity="0.4" d="M7.5 13.75C10.9519 13.75 13.75 10.9519 13.75 7.5C13.75 4.04813 10.9519 1.25 7.5 1.25C4.04813 1.25 1.25 4.04813 1.25 7.5C1.25 10.9519 4.04813 13.75 7.5 13.75Z" fill="#2C3B7C"/>
<path d="M7.5 8.125C7.15 8.125 6.875 7.84375 6.875 7.5C6.875 7.15625 7.15625 6.875 7.5 6.875C7.84375 6.875 8.125 7.15625 8.125 7.5C8.125 7.84375 7.85 8.125 7.5 8.125ZM10 8.125C9.65 8.125 9.375 7.84375 9.375 7.5C9.375 7.15625 9.65625 6.875 10 6.875C10.3438 6.875 10.625 7.15625 10.625 7.5C10.625 7.84375 10.35 8.125 10 8.125ZM5 8.125C4.65 8.125 4.375 7.84375 4.375 7.5C4.375 7.15625 4.65625 6.875 5 6.875C5.34375 6.875 5.625 7.15625 5.625 7.5C5.625 7.84375 5.35 8.125 5 8.125Z" fill="#2C3B7C"/>
</svg>
