<svg width="30" height="30" viewBox="0 0 30 30" fill="none" xmlns="http://www.w3.org/2000/svg">
    <path opacity="0.4" d="M21.9965 29.9845H8.00231C5.83253 30.1194 3.70171 29.3672 2.09835 27.9017C0.632848 26.2969 -0.119383 24.1661 0.0154793 21.9978V8.00224C-0.119383 5.83397 0.63135 3.70317 2.09685 2.09833C3.70171 0.632842 5.83253 -0.119382 8.00231 0.0154791H21.9965C24.1633 -0.119382 26.2926 0.631343 27.896 2.09683C29.36 3.70317 30.1137 5.83247 29.9848 8.00224V21.9978C30.1182 24.1661 29.3675 26.2969 27.902 27.9017C26.2971 29.3672 24.1663 30.1194 21.9965 29.9845Z" fill="#8BD9FF"/>
    <path d="M22.5818 12.5963L12.7527 22.4743C12.2415 22.9719 11.5697 23.2499 10.8686 23.2499H7.43644C7.24657 23.2499 7.07131 23.1768 6.93987 23.0451C6.80842 22.9134 6.75 22.7377 6.75 22.5475L6.83763 19.0792C6.85224 18.3914 7.12973 17.7475 7.6117 17.2646L14.5783 10.2841C14.6951 10.167 14.8996 10.167 15.0164 10.2841L17.4598 12.7177C17.6205 12.8773 17.8542 12.9812 18.1025 12.9812C18.6429 12.9812 19.0664 12.5421 19.0664 12.0153C19.0664 11.7519 18.9642 11.5177 18.8035 11.3421C18.7597 11.2836 16.4331 8.96701 16.4331 8.96701C16.2871 8.82067 16.2871 8.57189 16.4331 8.42555L17.4117 7.43043C18.3172 6.52311 19.7777 6.52311 20.6832 7.43043L22.5818 9.33287C23.4727 10.2255 23.4727 11.689 22.5818 12.5963Z" fill="#8BD9FF"/>
</svg>
