<svg width="30" height="30" viewBox="0 0 30 30" fill="none" xmlns="http://www.w3.org/2000/svg">
<path opacity="0.4" d="M16.9576 5.82364V6.09821C16.2216 6.08376 15.4856 6.08376 14.7496 6.08376V5.83809C14.7496 4.84099 13.9105 4.03175 12.9095 4.03175H11.4522C9.78884 4.03175 8.43457 2.70229 8.43457 1.0838C8.43457 0.491325 8.93506 0 9.53859 0C10.1568 0 10.6426 0.491325 10.6426 1.0838C10.6426 1.51733 11.0106 1.86414 11.4522 1.86414H12.9095C15.1323 1.87859 16.9429 3.65603 16.9576 5.82364Z" fill="#8BD9FF"/>
<path d="M14.7498 6.08405C15.4858 6.08405 16.2218 6.08405 16.9578 6.0985C18.3562 6.0985 19.7547 6.1274 21.1678 6.14185C26.2758 6.14185 30 9.78343 30 14.8123V21.2718C30 26.3006 26.2758 29.9422 21.1678 29.9422C19.1217 29.9855 17.0756 30 15.0147 30C12.9539 30 10.8783 29.9855 8.83219 29.9422C3.72424 29.9422 0 26.3006 0 21.2718V14.8123C0 9.78343 3.72424 6.14185 8.84691 6.14185C10.7753 6.11295 12.7478 6.08405 14.7498 6.08405ZM10.6281 14.3499C10.0098 14.3499 9.52404 14.8412 9.52404 15.4337V16.951H7.96369C7.36016 16.951 6.85967 17.4423 6.85967 18.0348C6.85967 18.6417 7.36016 19.1186 7.96369 19.1186H9.52404V20.6504C9.52404 21.2429 10.0098 21.7342 10.6281 21.7342C11.2316 21.7342 11.7321 21.2429 11.7321 20.6504V19.1186H13.2777C13.8813 19.1186 14.3817 18.6417 14.3817 18.0348C14.3817 17.4423 13.8813 16.951 13.2777 16.951H11.7321V15.4337C11.7321 14.8412 11.2316 14.3499 10.6281 14.3499ZM22.1982 19.4799H22.051C21.4328 19.4799 20.947 19.9712 20.947 20.5637C20.947 21.1706 21.4328 21.6475 22.051 21.6475H22.1982C22.8018 21.6475 23.3023 21.1706 23.3023 20.5637C23.3023 19.9712 22.8018 19.4799 22.1982 19.4799ZM19.6811 14.5088H19.5339C18.9156 14.5088 18.4298 15.0001 18.4298 15.5926C18.4298 16.1996 18.9156 16.6764 19.5339 16.6764H19.6811C20.2846 16.6764 20.7851 16.1996 20.7851 15.5926C20.7851 15.0001 20.2846 14.5088 19.6811 14.5088Z" fill="#8BD9FF"/>
</svg>
