<svg width="94" height="24" viewBox="0 0 94 24" fill="none" xmlns="http://www.w3.org/2000/svg">
<path opacity="0.4" d="M56 7V17C56 20 54.5 22 51 22H43C39.5 22 38 20 38 17V7C38 4 39.5 2 43 2H51C54.5 2 56 4 56 7Z" fill="#8BD9FF"/>
<path d="M50.5 2V9.86C50.5 10.3 49.98 10.52 49.66 10.23L47.34 8.09C47.248 8.00337 47.1264 7.95513 47 7.95513C46.8736 7.95513 46.752 8.00337 46.66 8.09L44.34 10.23C44.2685 10.2964 44.1791 10.3403 44.0828 10.3565C43.9866 10.3727 43.8877 10.3603 43.7984 10.321C43.7091 10.2816 43.6333 10.217 43.5803 10.1351C43.5272 10.0532 43.4993 9.95758 43.5 9.86V2H50.5ZM52.5 14.75H48.25C47.84 14.75 47.5 14.41 47.5 14C47.5 13.59 47.84 13.25 48.25 13.25H52.5C52.91 13.25 53.25 13.59 53.25 14C53.25 14.41 52.91 14.75 52.5 14.75ZM52.5 18.75H44C43.59 18.75 43.25 18.41 43.25 18C43.25 17.59 43.59 17.25 44 17.25H52.5C52.91 17.25 53.25 17.59 53.25 18C53.25 18.41 52.91 18.75 52.5 18.75Z" fill="#8BD9FF"/>
</svg>
