<svg width="14" height="14" viewBox="0 0 14 14" fill="none" xmlns="http://www.w3.org/2000/svg">
<path opacity="0.4" d="M12.8333 4.33415V7.83415C12.8333 8.70915 12.5416 9.43831 12.0283 9.95165C11.5208 10.4591 10.7916 10.7508 9.91663 10.7508V11.9933C9.91663 12.46 9.39746 12.74 9.01246 12.4833L6.41663 10.7508H5.17996C5.22663 10.5758 5.24996 10.395 5.24996 10.2083C5.24996 9.61331 5.02246 9.06498 4.64913 8.65081C4.43216 8.40568 4.16539 8.20967 3.86662 8.07588C3.56786 7.94209 3.24398 7.8736 2.91663 7.87498C2.26329 7.87498 1.66829 8.14331 1.24246 8.58081C1.18996 8.34748 1.16663 8.09665 1.16663 7.83415V4.33415C1.16663 2.58415 2.33329 1.41748 4.08329 1.41748H9.91663C11.6666 1.41748 12.8333 2.58415 12.8333 4.33415Z" fill="#8BD9FF"/>
<path d="M9.04161 6.5625H4.95828C4.71911 6.5625 4.52078 6.36417 4.52078 6.125C4.52078 5.88583 4.71911 5.6875 4.95828 5.6875H9.04161C9.28078 5.6875 9.47911 5.88583 9.47911 6.125C9.47911 6.36417 9.28078 6.5625 9.04161 6.5625ZM3.03911 7.882C2.40328 7.84117 1.74995 8.0745 1.26578 8.55867C0.828775 8.99693 0.583374 9.59059 0.583374 10.2095C0.583374 10.8284 0.828775 11.4221 1.26578 11.8603C1.57495 12.1695 1.95411 12.3737 2.35661 12.4728C2.57828 12.5312 2.81161 12.5487 3.04495 12.537C3.59911 12.5137 4.14161 12.292 4.56745 11.8662C4.85227 11.5823 5.05847 11.2292 5.16584 10.8417C5.27321 10.4541 5.27807 10.0453 5.17995 9.65533C5.08661 9.25283 4.87661 8.87367 4.56745 8.5645C4.1615 8.15356 3.61607 7.90999 3.03911 7.882ZM4.22328 10.1978C4.22328 10.3203 4.17661 10.4253 4.09495 10.507C4.01328 10.5887 3.90828 10.6353 3.78578 10.6353H3.35411V11.0903C3.35411 11.2128 3.30745 11.3178 3.22578 11.3995C3.14411 11.4812 3.03911 11.5278 2.91661 11.5278C2.67745 11.5278 2.47911 11.3295 2.47911 11.0903V10.6353H2.04161C1.80245 10.6353 1.60411 10.437 1.60411 10.1978C1.60411 9.95867 1.80245 9.76033 2.04161 9.76033H2.47911V9.34617C2.47911 9.107 2.67745 8.90867 2.91661 8.90867C3.15578 8.90867 3.35411 9.107 3.35411 9.34617V9.76033H3.78578C4.03078 9.76033 4.22328 9.95867 4.22328 10.1978Z" fill="#8BD9FF"/>
</svg>
