<svg width="24" height="24" viewBox="0 0 24 24" fill="none" xmlns="http://www.w3.org/2000/svg">
<path opacity="0.4" d="M8.67 14H4C2.9 14 2 14.9 2 16V22H8.67V14Z" fill="#01FD91"/>
<path d="M13.33 10H10.66C9.56 10 8.66 10.9 8.66 12V22H15.33V12C15.33 11.4696 15.1193 10.9609 14.7442 10.5858C14.3691 10.2107 13.8604 10 13.33 10Z" fill="#01FD91"/>
<path opacity="0.4" d="M20 17H15.33V22H22V19C22 17.9 21.1 17 20 17Z" fill="#01FD91"/>
<path d="M15.01 4.84998C15.32 4.53998 15.44 4.16998 15.34 3.84998C15.24 3.52998 14.93 3.29998 14.49 3.22998L13.53 3.06998C13.4704 3.04861 13.4183 3.01039 13.38 2.95998L12.85 1.89998C12.45 1.08998 11.54 1.08998 11.14 1.89998L10.61 2.95998C10.59 2.99998 10.5 3.05998 10.46 3.06998L9.5 3.22998C9.06 3.29998 8.76 3.52998 8.65 3.84998C8.55 4.16998 8.67 4.53998 8.98 4.84998L9.72 5.59998C9.75 5.62998 9.79 5.74998 9.78 5.78998L9.57 6.70998C9.41 7.38998 9.67 7.69998 9.84 7.82998C10.01 7.94998 10.38 8.10998 10.99 7.74998L11.89 7.21998C11.93 7.18998 12.06 7.18998 12.1 7.21998L13 7.74998C13.28 7.91998 13.51 7.96998 13.69 7.96998C13.9 7.96998 14.05 7.88998 14.14 7.82998C14.31 7.70998 14.57 7.39998 14.41 6.70998L14.2 5.78998C14.19 5.73998 14.22 5.62998 14.26 5.59998L15.01 4.84998Z" fill="#01FD91"/>
</svg>
