<svg width="94" height="24" viewBox="0 0 94 24" fill="none" xmlns="http://www.w3.org/2000/svg">
<path opacity="0.4" d="M43.67 14.7075H39C37.9 14.7075 37 15.6075 37 16.7075V22.7075H43.67V14.7075Z" fill="#8BD9FF"/>
<path d="M48.33 10.7075H45.66C44.56 10.7075 43.66 11.6075 43.66 12.7075V22.7075H50.33V12.7075C50.33 12.1771 50.1193 11.6684 49.7442 11.2933C49.3692 10.9182 48.8605 10.7075 48.33 10.7075Z" fill="#8BD9FF"/>
<path opacity="0.4" d="M55 17.7075H50.33V22.7075H57V19.7075C57 18.6075 56.1 17.7075 55 17.7075Z" fill="#8BD9FF"/>
<path d="M50.0101 5.5575C50.3201 5.2475 50.4401 4.8775 50.3401 4.5575C50.2401 4.2375 49.9301 4.0075 49.4901 3.9375L48.5301 3.7775C48.4705 3.75613 48.4183 3.71791 48.3801 3.6675L47.8501 2.6075C47.4501 1.7975 46.5401 1.7975 46.1401 2.6075L45.6101 3.6675C45.5901 3.7075 45.5001 3.7675 45.4601 3.7775L44.5001 3.9375C44.0601 4.0075 43.7601 4.2375 43.6501 4.5575C43.5501 4.8775 43.6701 5.2475 43.9801 5.5575L44.7201 6.3075C44.7501 6.3375 44.7901 6.4575 44.7801 6.4975L44.5701 7.4175C44.4101 8.0975 44.6701 8.4075 44.8401 8.5375C45.0101 8.6575 45.3801 8.8175 45.9901 8.4575L46.8901 7.9275C46.9301 7.8975 47.0601 7.8975 47.1001 7.9275L48.0001 8.4575C48.2801 8.6275 48.5101 8.6775 48.6901 8.6775C48.9001 8.6775 49.0501 8.5975 49.1401 8.5375C49.3101 8.4175 49.5701 8.1075 49.4101 7.4175L49.2001 6.4975C49.1901 6.4475 49.2201 6.3375 49.2601 6.3075L50.0101 5.5575Z" fill="#8BD9FF"/>
</svg>
