<svg width="21" height="20" viewBox="0 0 21 20" fill="none" xmlns="http://www.w3.org/2000/svg">
<path d="M19.5562 0.582132C19.0529 0.0677447 18.308 -0.122508 17.6134 0.0788176L1.41675 4.75863C0.683924 4.96197 0.164503 5.5428 0.024582 6.27965C-0.118359 7.03059 0.380929 7.98488 1.03322 8.3835L6.09757 11.4759C6.61699 11.794 7.28741 11.7144 7.71724 11.2836L13.5164 5.48441C13.8083 5.18142 14.2915 5.18142 14.5835 5.48441C14.8754 5.77533 14.8754 6.24945 14.5835 6.55144L8.7742 12.3506C8.34336 12.7815 8.26283 13.4499 8.57992 13.9703L11.6743 19.0538C12.0367 19.6567 12.6608 20 13.3453 20C13.4258 20 13.5164 20 13.597 19.9889C14.3821 19.8893 15.0062 19.3547 15.2378 18.5998L20.0394 2.52493C20.2508 1.84042 20.0595 1.09551 19.5562 0.582132Z" fill="#8BD9FF"/>
<path opacity="0.4" d="M7.50077 17.2558C7.7947 17.5508 7.7947 18.0289 7.50077 18.3239L6.12571 19.6979C5.97874 19.8459 5.78547 19.9194 5.5922 19.9194C5.39892 19.9194 5.20565 19.8459 5.05868 19.6979C4.76374 19.403 4.76374 18.9258 5.05868 18.6309L6.43273 17.2558C6.72767 16.9619 7.20582 16.9619 7.50077 17.2558ZM6.71187 13.4427C7.00581 13.7377 7.00581 14.2158 6.71187 14.5108L5.33682 15.8848C5.18985 16.0328 4.99657 16.1063 4.8033 16.1063C4.61003 16.1063 4.41676 16.0328 4.26979 15.8848C3.97485 15.5899 3.97485 15.1127 4.26979 14.8178L5.64384 13.4427C5.93878 13.1488 6.41693 13.1488 6.71187 13.4427ZM2.92574 12.2424C3.21967 12.5374 3.21967 13.0155 2.92574 13.3105L1.55068 14.6845C1.40372 14.8325 1.21044 14.906 1.01717 14.906C0.823898 14.906 0.630626 14.8325 0.483658 14.6845C0.188716 14.3896 0.188716 13.9124 0.483658 13.6175L1.85771 12.2424C2.15265 11.9485 2.6308 11.9485 2.92574 12.2424Z" fill="#8BD9FF"/>
</svg>
