<svg width="29" height="30" viewBox="0 0 29 30" fill="none" xmlns="http://www.w3.org/2000/svg">
<path d="M14.2681 19.245C11.8614 19.245 9.91455 17.37 9.91455 15.015C9.91455 12.66 11.8614 10.77 14.2681 10.77C16.6748 10.77 18.5756 12.66 18.5756 15.015C18.5756 17.37 16.6748 19.245 14.2681 19.245Z" fill="#8BD9FF"/>
<path opacity="0.4" d="M28.0952 18.555C27.8039 18.105 27.39 17.655 26.8535 17.37C26.4243 17.16 26.1484 16.815 25.9031 16.41C25.1213 15.12 25.5812 13.425 26.8842 12.66C28.4171 11.805 28.9077 9.9 28.0185 8.415L26.9915 6.645C26.1177 5.16 24.2015 4.635 22.6839 5.505C21.3349 6.225 19.6027 5.745 18.8209 4.47C18.5757 4.05 18.4377 3.6 18.4684 3.15C18.5143 2.565 18.3304 2.01 18.0545 1.56C17.4873 0.63 16.4602 0 15.3258 0H13.1644C12.0454 0.03 11.0183 0.63 10.4511 1.56C10.1598 2.01 9.99122 2.565 10.0219 3.15C10.0525 3.6 9.91457 4.05 9.6693 4.47C8.88751 5.745 7.15529 6.225 5.82164 5.505C4.2887 4.635 2.38786 5.16 1.49876 6.645L0.471688 8.415C-0.402085 9.9 0.0884544 11.805 1.60606 12.66C2.90906 13.425 3.36894 15.12 2.60247 16.41C2.34187 16.815 2.06594 17.16 1.63672 17.37C1.11552 17.655 0.655641 18.105 0.410371 18.555C-0.156815 19.485 -0.126157 20.655 0.44103 21.63L1.49876 23.43C2.06594 24.39 3.12367 24.99 4.22738 24.99C4.74858 24.99 5.36175 24.84 5.85229 24.54C6.23553 24.285 6.69541 24.195 7.20128 24.195C8.71888 24.195 9.99122 25.44 10.0219 26.925C10.0219 28.65 11.4322 30 13.2104 30H15.2952C17.0581 30 18.4684 28.65 18.4684 26.925C18.5143 25.44 19.7867 24.195 21.3043 24.195C21.7948 24.195 22.2547 24.285 22.6533 24.54C23.1438 24.84 23.7417 24.99 24.2782 24.99C25.3666 24.99 26.4243 24.39 26.9915 23.43L28.0645 21.63C28.6164 20.625 28.6624 19.485 28.0952 18.555Z" fill="#8BD9FF"/>
</svg>
