<svg width="23" height="21" viewBox="0 0 23 21" fill="none" xmlns="http://www.w3.org/2000/svg">
<path d="M10.5919 0.968665C10.9494 0.193793 12.0506 0.193793 12.4081 0.968665L14.7923 6.13761C14.9379 6.45341 15.2372 6.67086 15.5826 6.7118L21.2353 7.38202C22.0827 7.4825 22.423 8.52988 21.7965 9.10925L17.6173 12.9741C17.362 13.2102 17.2477 13.562 17.3154 13.9031L18.4248 19.4863C18.5911 20.3233 17.7001 20.9706 16.9555 20.5538L11.9884 17.7734C11.685 17.6035 11.315 17.6035 11.0116 17.7734L6.04447 20.5538C5.29986 20.9706 4.4089 20.3233 4.5752 19.4863L5.68457 13.9031C5.75235 13.562 5.63803 13.2102 5.3827 12.9741L1.2035 9.10925C0.577 8.52988 0.917317 7.4825 1.76471 7.38202L7.41743 6.7118C7.76279 6.67086 8.06207 6.45341 8.20774 6.13761L10.5919 0.968665Z" fill="#01FD91"/>
</svg>
